<svg id="Layer_1" enable-background="new 0 0 128 128" height="512" viewBox="0 0 128 128" width="512" xmlns="http://www.w3.org/2000/svg"><path d="m86.524 82.055v-1.459c0-8.13-6.614-14.745-14.744-14.745h-12.434c-.46-3.959-3.606-7.105-7.565-7.565v-7.274c2.018-.458 3.532-2.258 3.532-4.412 0-2.499-2.033-4.531-4.532-4.531s-4.531 2.033-4.531 4.531c0 2.154 1.514 3.955 3.531 4.412v7.274c-3.959.46-7.105 3.607-7.565 7.565h-12.433c-8.131 0-14.745 6.614-14.745 14.745v1.459c-4.288.498-7.628 4.147-7.628 8.566s3.34 8.067 7.628 8.565v2.027c0 8.13 6.614 14.745 14.745 14.745h41.997c8.13 0 14.744-6.614 14.744-14.745v-2.027c4.288-.498 7.628-4.146 7.628-8.565s-3.34-8.068-7.628-8.566z" fill="#e6e7e8"/><path d="m118.301 16.042h-41.177c-3.467 0-6.288 2.821-6.288 6.288v24.648c0 3.468 2.821 6.29 6.288 6.29h1.96v9.77c0 .394.23.75.59.912.132.059.271.088.41.088.24 0 .477-.086.663-.252l11.861-10.518h25.692c3.468 0 6.289-2.821 6.289-6.29v-24.648c.001-3.467-2.82-6.288-6.288-6.288z" fill="#e6e7e8"/><path d="m67.78 110.957h-41.997c-7.559 0-13.745-6.185-13.745-13.745v-20.616c0-7.559 6.185-13.744 13.745-13.744h41.997c7.559 0 13.745 6.185 13.745 13.744v20.617c-.001 7.559-6.186 13.744-13.745 13.744z" fill="#6dc9f7"/><path d="m67.78 62.852h-41.997c-7.559 0-13.745 6.185-13.745 13.745v3c0-7.56 6.185-13.745 13.745-13.745h41.997c7.56 0 13.745 6.185 13.745 13.745v-3c-.001-7.56-6.186-13.745-13.745-13.745z" fill="#fff"/><path d="m25.783 104.085c-3.79 0-6.872-3.083-6.872-6.872v-20.617c0-3.79 3.083-6.872 6.872-6.872h41.997c3.79 0 6.872 3.083 6.872 6.872v20.617c0 3.79-3.083 6.872-6.872 6.872z" fill="#ffd7e5"/><path d="m12.038 78.992v15.256c-4.215 0-7.628-3.413-7.628-7.628s3.413-7.628 7.628-7.628z" fill="#0089ef"/><path d="m89.153 86.62c0 4.215-3.413 7.628-7.628 7.628v-15.256c4.214 0 7.628 3.413 7.628 7.628z" fill="#0089ef"/><path d="m46.781 55.224c-4.215 0-7.628 3.413-7.628 7.628h15.257c0-4.215-3.414-7.628-7.629-7.628z" fill="#0089ef"/><circle cx="46.781" cy="42.601" fill="#fa759e" r="3.532"/><path d="m73.124 48.267c-2.921 0-5.288-2.368-5.288-5.289v-24.648c0-2.919 2.367-5.288 5.288-5.288h41.177c2.921 0 5.289 2.368 5.289 5.288v24.648c0 2.922-2.367 5.289-5.289 5.289h-26.073l-12.144 10.77v-10.77z" fill="#fa759e"/><g fill="#3a2c60"><path d="m32.855 78.839c-2.362 0-4.295 1.933-4.295 4.295s1.933 4.295 4.295 4.295c2.362 0 4.295-1.933 4.295-4.295s-1.932-4.295-4.295-4.295z"/><circle cx="60.708" cy="83.134" r="4.295"/><path d="m50.342 92.349c-.052.066-1.291 1.621-3.561 1.621-2.312 0-3.487-1.524-3.547-1.602-.324-.443-.945-.543-1.392-.221-.448.323-.549.948-.226 1.396.071.099 1.789 2.427 5.164 2.427 3.289 0 5.076-2.31 5.15-2.408.332-.438.246-1.059-.189-1.394-.433-.332-1.061-.254-1.399.181z"/><path d="m82.524 78.055v-1.459c0-8.13-6.614-14.745-14.744-14.745h-12.434c-.46-3.959-3.606-7.105-7.565-7.565v-7.274c2.018-.458 3.532-2.258 3.532-4.412 0-2.499-2.033-4.532-4.532-4.532s-4.531 2.033-4.531 4.532c0 2.154 1.514 3.954 3.531 4.412v7.274c-3.959.46-7.105 3.607-7.565 7.565h-12.433c-8.131 0-14.745 6.614-14.745 14.745v1.459c-4.288.498-7.628 4.146-7.628 8.566 0 4.419 3.34 8.067 7.628 8.565v2.027c0 8.13 6.614 14.745 14.745 14.745h41.997c8.13 0 14.744-6.614 14.744-14.745v-2.027c4.288-.498 7.628-4.146 7.628-8.565 0-4.42-3.34-8.068-7.628-8.566zm-38.274-35.454c0-1.396 1.136-2.532 2.531-2.532 1.396 0 2.532 1.136 2.532 2.532s-1.136 2.531-2.532 2.531c-1.395 0-2.531-1.135-2.531-2.531zm2.531 13.623c3.314 0 6.069 2.446 6.553 5.628h-13.105c.483-3.182 3.238-5.628 6.552-5.628zm-41.371 30.397c0-3.315 2.446-6.069 5.628-6.553v13.106c-3.182-.485-5.628-3.239-5.628-6.553zm75.114 10.592c0 7.027-5.717 12.745-12.744 12.745h-41.997c-7.027 0-12.745-5.717-12.745-12.745v-2.964-15.257-2.396c0-7.027 5.718-12.745 12.745-12.745h13.37 15.256 13.371c7.027 0 12.744 5.717 12.744 12.745v2.396 15.256zm2-4.04v-13.106c3.182.484 5.628 3.238 5.628 6.553s-2.446 6.069-5.628 6.553z"/><path d="m114.301 12.042h-41.177c-3.467 0-6.288 2.821-6.288 6.288v24.648c0 3.468 2.821 6.29 6.288 6.29h1.96v9.77c0 .394.23.75.59.912.132.059.271.088.41.088.24 0 .477-.086.663-.252l11.861-10.518h25.692c3.468 0 6.289-2.821 6.289-6.29v-5.124c0-.552-.447-1-1-1s-1 .448-1 1v5.124c0 2.365-1.924 4.29-4.289 4.29h-26.071c-.244 0-.48.089-.663.252l-10.481 9.294v-8.546c0-.552-.447-1-1-1h-2.96c-2.364 0-4.288-1.924-4.288-4.29v-24.648c0-2.364 1.924-4.288 4.288-4.288h41.177c2.365 0 4.289 1.923 4.289 4.288v5.046c0 .552.447 1 1 1s1-.448 1-1v-5.046c-.001-3.467-2.822-6.288-6.29-6.288z"/><path d="m119.59 25.995c-.553 0-1 .448-1 1v6.989c0 .552.447 1 1 1s1-.448 1-1v-6.989c0-.552-.447-1-1-1z"/></g><circle cx="93.713" cy="31.376" fill="#fff" r="3.37"/><circle cx="80.214" cy="31.376" fill="#fff" r="3.37"/><circle cx="107.211" cy="31.376" fill="#fff" r="3.37"/></svg>