<svg height="496pt" viewBox="0 0 496 496" width="496pt" xmlns="http://www.w3.org/2000/svg"><path d="m392 40v32h-272v-32c0-17.679688 14.320312-32 32-32h208c17.679688 0 32 14.320312 32 32zm0 0" fill="#838f9b"/><path d="m392 424v32c0 17.679688-14.320312 32-32 32h-208c-17.679688 0-32-14.320312-32-32v-32zm0 0" fill="#838f9b"/><g fill="#69d6f4"><path d="m120 280h32v144h-32zm0 0"/><path d="m376 344h16v80h-32v-102.878906c3.921875 1.839844 8.078125 3.199218 12.320312 4.320312zm0 0"/><path d="m392 72v80h-16l-3.679688 18.558594c-4.242187 1.121094-8.398437 2.480468-12.320312 4.320312v-102.878906zm0 0"/><path d="m120 72h32v32h-32zm0 0"/></g><path d="m351.199219 179.28125c2.800781-1.679688 5.761719-3.203125 8.800781-4.402344v-102.878906h-208v32h48c8.800781 0 16 7.199219 16 16v184l-45.839844-24h-18.160156v144h208v-102.878906c-3.039062-1.199219-6-2.722656-8.800781-4.402344l-15.757813 10.480469-22.640625-22.640625 10.480469-15.757813c-3.839844-6.480469-6.800781-13.601562-8.722656-21.121093l-18.558594-3.679688v-32l18.558594-3.679688c1.921875-7.519531 4.882812-14.640624 8.722656-21.121093l-10.480469-15.757813 22.640625-22.640625zm0 0" fill="#e6e9ed"/><path d="m112 152v-48h88c8.800781 0 16 7.199219 16 16v184l-45.839844-24h-58.160156v-48h12c11.039062 0 20-8.960938 20-20 0-5.519531-2.238281-10.558594-5.839844-14.160156-3.601562-3.601563-8.640625-5.839844-14.160156-5.839844h-24c-11.039062 0-20-8.960938-20-20 0-5.519531 2.238281-10.558594 5.839844-14.160156 3.601562-3.601563 8.640625-5.839844 14.160156-5.839844zm0 0" fill="#ffeaa7"/><path d="m112 232v48h-88c-8.800781 0-16-7.199219-16-16v-144c0-8.800781 7.199219-16 16-16h88v48h-12c-5.519531 0-10.558594 2.238281-14.160156 5.839844-3.601563 3.601562-5.839844 8.640625-5.839844 14.160156 0 11.039062 8.960938 20 20 20h24c5.519531 0 10.558594 2.238281 14.160156 5.839844 3.601563 3.601562 5.839844 8.640625 5.839844 14.160156 0 11.039062-8.960938 20-20 20zm0 0" fill="#ffeaa7"/><path d="m312 344v48h-128v-48zm0 0" fill="#b4dd7f"/><path d="m360 174.878906c3.921875-1.839844 8.078125-3.199218 12.320312-4.320312l3.679688-18.558594h32l3.679688 18.558594c7.519531 1.921875 14.640624 4.882812 21.121093 8.722656l15.757813-10.480469 22.640625 22.640625-10.480469 15.757813c3.839844 6.480469 6.800781 13.601562 8.722656 21.121093l18.558594 3.679688v32l-18.558594 3.679688c-1.921875 7.519531-4.882812 14.640624-8.722656 21.121093l10.480469 15.757813-22.640625 22.640625-15.757813-10.480469c-6.480469 3.839844-13.601562 6.800781-21.121093 8.722656l-3.679688 18.558594h-32l-3.679688-18.558594c-4.242187-1.121094-8.398437-2.480468-12.320312-4.320312-3.039062-1.199219-6-2.722656-8.800781-4.402344l-15.757813 10.480469-22.640625-22.640625 10.480469-15.757813c-3.839844-6.480469-6.800781-13.601562-8.722656-21.121093l-18.558594-3.679688v-32l18.558594-3.679688c1.921875-7.519531 4.882812-14.640624 8.722656-21.121093l-10.480469-15.757813 22.640625-22.640625 15.757813 10.480469c2.800781-1.679688 5.761719-3.203125 8.800781-4.402344zm80 73.121094c0-26.480469-21.519531-48-48-48s-48 21.519531-48 48 21.519531 48 48 48 48-21.519531 48-48zm0 0" fill="#ffc729"/><path d="m392 200c26.480469 0 48 21.519531 48 48s-21.519531 48-48 48-48-21.519531-48-48 21.519531-48 48-48zm16 48c0-8.800781-7.199219-16-16-16s-16 7.199219-16 16 7.199219 16 16 16 16-7.199219 16-16zm0 0" fill="#fcd770"/><path d="m200 448h112v16h-112zm0 0"/><path d="m496 270.558594v-45.117188l-20.191406-4.042968c-1.511719-4.78125-3.441406-9.414063-5.746094-13.855469l11.433594-17.136719-31.894532-31.894531-17.144531 11.425781c-4.441406-2.304688-9.074219-4.21875-13.847656-5.738281l-4.058594-20.199219h-14.550781v-104c0-22.054688-17.945312-40-40-40h-208c-22.054688 0-40 17.945312-40 40v56h-88c-13.230469 0-24 10.769531-24 24v144c0 13.230469 10.769531 24 24 24h88v168c0 22.054688 17.945312 40 40 40h208c22.054688 0 40-17.945312 40-40v-104h14.550781l4.050781-20.191406c4.78125-1.519532 9.414063-3.441406 13.847657-5.738282l17.144531 11.425782 31.894531-31.902344-11.433593-17.136719c2.304687-4.441406 4.226562-9.074219 5.746093-13.855469zm-126.550781-126.558594-1.449219 7.214844v-71.214844h16v64zm-55.511719 63.542969c-2.304688 4.441406-4.226562 9.074219-5.746094 13.855469l-20.191406 4.042968v45.117188l20.191406 4.042968c1.511719 4.78125 3.441406 9.414063 5.746094 13.855469l-11.433594 17.136719 31.894532 31.902344 17.144531-11.425782c.144531.082032.304687.136719.457031.210938v89.71875h-192v-128h8.207031l55.792969 29.222656v-29.222656h48v-16h-48v-16h48v-16h-48v-16h48v-16h-48v-16h48v-16h-48v-16h88v-16h-88v-16h112v-16h-113.472656c-3.3125-9.289062-12.113282-16-22.527344-16h-40v-16h192v89.71875c-.152344.074219-.304688.136719-.457031.210938l-17.144531-11.425782-31.894532 31.894532zm-161.9375-191.542969h208c13.230469 0 24 10.769531 24 24v24h-256v-24c0-13.230469 10.769531-24 24-24zm-24 64h16v16h-16zm-112 184v-144c0-4.40625 3.585938-8 8-8h176c4.414062 0 8 3.59375 8 8v170.777344l-35.847656-18.777344h-148.152344c-4.414062 0-8-3.59375-8-8zm128 24v128h-16v-128zm216 192h-208c-13.230469 0-24-10.769531-24-24v-24h256v24c0 13.230469-10.769531 24-24 24zm24-64h-16v-71.214844l1.449219 7.214844h14.550781zm78.945312-155.144531-1.242187 4.878906c-1.710937 6.707031-4.351563 13.097656-7.871094 19l-2.574219 4.335937 9.644532 14.480469-13.351563 13.351563-14.488281-9.65625-4.328125 2.585937c-5.894531 3.511719-12.285156 6.160157-18.992187 7.863281l-4.886719 1.242188-3.40625 17.0625h-18.890625l-3.40625-17.054688-4.886719-1.242187c-6.707031-1.703125-13.097656-4.351563-18.992187-7.863281l-4.328126-2.582032-14.488281 9.652344-13.351562-13.351562 9.648437-14.480469-2.578125-4.335937c-3.519531-5.902344-6.167969-12.292969-7.871093-19l-1.242188-4.878907-17.0625-3.421875v-18.882812l17.054688-3.414063 1.242187-4.878906c1.710937-6.707031 4.351563-13.097656 7.871094-19l2.574219-4.335937-9.644532-14.480469 13.351563-13.351563 14.488281 9.65625 4.328125-2.585937c5.894531-3.511719 12.285156-6.160157 18.992187-7.863281l4.886719-1.242188 3.40625-17.0625h18.890625l3.40625 17.054688 4.886719 1.242187c6.707031 1.703125 13.097656 4.351563 18.992187 7.863281l4.328126 2.582032 14.488281-9.652344 13.351562 13.351562-9.648437 14.480469 2.578125 4.335937c3.519531 5.902344 6.167969 12.292969 7.871093 19l1.242188 4.878907 17.0625 3.421875v18.882812zm0 0"/><path d="m416 248c0-13.230469-10.769531-24-24-24s-24 10.769531-24 24 10.769531 24 24 24 24-10.769531 24-24zm-32 0c0-4.40625 3.585938-8 8-8s8 3.59375 8 8-3.585938 8-8 8-8-3.59375-8-8zm0 0"/><path d="m100 160h24c6.617188 0 12 5.382812 12 12h16c0-15.441406-12.558594-28-28-28h-4v-16h-16v16h-4c-15.441406 0-28 12.558594-28 28s12.558594 28 28 28h24c6.617188 0 12 5.382812 12 12s-5.382812 12-12 12h-24c-6.617188 0-12-5.382812-12-12h-16c0 15.441406 12.558594 28 28 28h4v16h16v-16h4c15.441406 0 28-12.558594 28-28s-12.558594-28-28-28h-24c-6.617188 0-12-5.382812-12-12s5.382812-12 12-12zm0 0"/><path d="m288 352h16v32h-80v16h96v-64h-32zm0 0"/><path d="m192 352h80v-16h-96v64h32v-16h-16zm0 0"/><path d="m32 128h16v16h-16zm0 0"/><path d="m176 128h16v16h-16zm0 0"/><path d="m32 240h16v16h-16zm0 0"/><path d="m176 240h16v16h-16zm0 0"/><path d="m392 288c-22.054688 0-40-17.945312-40-40 0-8.320312 2.566406-16.320312 7.425781-23.144531l-13.035156-9.28125c-6.796875 9.546875-10.390625 20.761719-10.390625 32.425781 0 30.878906 25.128906 56 56 56 11.664062 0 22.871094-3.59375 32.425781-10.390625l-9.28125-13.035156c-6.824219 4.859375-14.824219 7.425781-23.144531 7.425781zm0 0"/><path d="m392 192c-11.664062 0-22.871094 3.59375-32.425781 10.390625l9.28125 13.035156c6.824219-4.859375 14.824219-7.425781 23.144531-7.425781 22.054688 0 40 17.945312 40 40 0 8.320312-2.566406 16.320312-7.425781 23.144531l13.035156 9.28125c6.796875-9.546875 10.390625-20.761719 10.390625-32.425781 0-30.878906-25.128906-56-56-56zm0 0"/></svg>