<?xml version="1.0" encoding="iso-8859-1"?>
<!-- Generator: Adobe Illustrator 21.0.0, SVG Export Plug-In . SVG Version: 6.00 Build 0)  -->
<svg xmlns="http://www.w3.org/2000/svg" xmlns:xlink="http://www.w3.org/1999/xlink" version="1.1" id="Capa_1" x="0px" y="0px" viewBox="0 0 508.462 508.462" style="enable-background:new 0 0 508.462 508.462;" xml:space="preserve" width="512" height="512">
<g>
	<g>
		<g>
			<g>
				<path style="fill:#FC5755;" d="M181.714,259.802v-37.403h22.928v36.724c0,10.396,3.983,14.281,10.396,14.281      s10.395-3.886,10.395-14.281v-36.724h22.54v37.403c0,20.402-12.241,32.158-33.129,32.158      C193.955,291.96,181.714,280.205,181.714,259.802z"/>
				<path style="fill:#FC0E3C;" d="M305.391,290.406l-11.755-18.168l-11.464,18.168h-26.134l24.58-34.295l-23.705-33.712h25.746      l11.561,17.099l11.27-17.099h24.677l-23.608,32.838l25.065,35.169H305.391z"/>
			</g>
		</g>
	</g>
	<g>
		<path style="fill:#F07F22;" d="M418.016,254.231C418.016,254.231,418.016,254.231,418.016,254.231l90.446,0c0,0,0,0,0,0    c0-67.907-26.445-131.75-74.462-179.768C385.981,26.445,322.139,0,254.231,0v90.446    C344.542,90.447,418.016,163.92,418.016,254.231z"/>
		<path style="fill:#6598EA;" d="M418.016,254.231c0,90.311-73.474,163.785-163.785,163.785v90.445    c67.908,0,131.75-26.444,179.769-74.462c48.017-48.017,74.462-111.861,74.462-179.768H418.016z"/>
		<path style="fill:#326ED3;" d="M90.446,254.231H0C0,322.138,26.445,385.982,74.462,434    c48.018,48.018,111.861,74.462,179.769,74.462v-90.445C163.92,418.016,90.447,344.543,90.446,254.231z"/>
		<path style="fill:#F3C86A;" d="M90.446,254.231c0-90.311,73.474-163.784,163.785-163.784V0C186.323,0,122.48,26.445,74.462,74.463    C26.445,122.481,0,186.324,0,254.231c0,0,0,0,0,0L90.446,254.231C90.446,254.231,90.446,254.231,90.446,254.231z"/>
	</g>
</g>















</svg>
