<svg xmlns="http://www.w3.org/2000/svg" viewBox="0 0 345.05 359"><defs><style>.cls-1{fill:#4b686e;}.cls-2{fill:#fc9b0e;}.cls-3{fill:#fdd017;}.cls-4{fill:none;}.cls-5{fill:#384848;}.cls-6{fill:#ded5d3;}</style></defs><g id="Layer_2" data-name="Layer 2"><g id="Layer_3" data-name="Layer 3"><path class="cls-1" d="M61.29,294.78h0A42.33,42.33,0,0,1,59.41,235L110,181.07a42.33,42.33,0,0,1,59.83-1.88h0l.88.87,36.86-39.25-.17-.17h0a93.15,93.15,0,0,0-131.68,4.14L21.92,202.07A93,93,0,0,0,5.19,226.93v77.83a92.74,92.74,0,0,0,20.87,29h0l.18.16,36-38.31C61.91,295.33,61.59,295.07,61.29,294.78Z"/><path class="cls-2" d="M280,123.63l-50.6,53.88a42.31,42.31,0,0,1-58.91,2.7l-36,38.31A93.14,93.14,0,0,0,266,214.22l53.81-57.29a93.16,93.16,0,0,0-4-131.51L279,64.67A42.32,42.32,0,0,1,280,123.63Z"/><path class="cls-3" d="M315.66,25.25A93.15,93.15,0,0,0,184,29.39l-53.8,57.29a93.16,93.16,0,0,0,4.13,131.68h0l.19.16,36-38.31c-.31-.27-.62-.53-.92-.82h0a42.33,42.33,0,0,1-1.88-59.83l50.6-53.88A42.33,42.33,0,0,1,278.1,63.8h0l.88.87,36.86-39.25-.18-.17Z"/><path class="cls-4" d="M169.84,179.19A42.33,42.33,0,0,0,110,181.07L59.41,235a42.33,42.33,0,0,0,1.88,59.83h0c.3.29.62.55.92.82a42.31,42.31,0,0,0,58.91-2.7L171.72,239a42.32,42.32,0,0,0-1-59l-.88-.87Z"/><path class="cls-5" d="M207.58,140.81l-36.86,39.25a42.32,42.32,0,0,1,1,59l-50.6,53.87a42.31,42.31,0,0,1-58.91,2.7l-36,38.31a93.15,93.15,0,0,0,131.5-4.3l53.8-57.29A93.15,93.15,0,0,0,207.58,140.81Z"/><rect class="cls-6" x="122.19" y="6.86" width="20.28" height="43.45" rx="7.24" transform="translate(-2.79 20.19) rotate(-8.63)"/><rect class="cls-6" x="55.78" y="47.93" width="20.28" height="43.45" rx="7.24" transform="translate(-29.72 62.64) rotate(-42.39)"/><rect class="cls-6" x="11.87" y="115.23" width="20.28" height="43.45" rx="7.24" transform="translate(-116.7 135.74) rotate(-80.37)"/><rect class="cls-6" x="207.64" y="309.44" width="20.28" height="43.45" rx="7.24" transform="translate(497.79 611.67) rotate(168.38)"/><rect class="cls-6" x="271.83" y="264.96" width="20.28" height="43.45" rx="7.24" transform="translate(684.08 287.41) rotate(134.63)"/><rect class="cls-6" x="312.17" y="195.46" width="20.28" height="43.45" rx="7.24" transform="translate(575.34 -77.82) rotate(96.65)"/></g></g></svg>